Coordinates
version=1
nRows=10
nColumns=34
inDegrees=yes

Units are S.I. units (second, meters, Newtons, ...)
If the header above contains a line with 'inDegrees', this indicates whether rotational values are in degrees (yes) or radians (no).

endheader
time	pelvis_tilt	pelvis_list	pelvis_rotation	pelvis_tx	pelvis_ty	pelvis_tz	hip_flexion_r	hip_adduction_r	hip_rotation_r	knee_angle_r	ankle_angle_r	subtalar_angle_r	mtp_angle_r	hip_flexion_l	hip_adduction_l	hip_rotation_l	knee_angle_l	ankle_angle_l	subtalar_angle_l	mtp_angle_l	lumbar_extension	lumbar_bending	lumbar_rotation	arm_flex_r	arm_add_r	arm_rot_r	elbow_flex_r	pro_sup_r	arm_flex_l	arm_add_l	arm_rot_l	elbow_flex_l	pro_sup_l
      3.21666670	    -28.39177289	     -0.18391887	      3.91552446	      0.37564469	      0.82947821	     -0.04373558	     65.11142138	      9.39101463	      3.50936071	     62.24147759	     25.94415184	    -35.00000000	      0.00000000	     76.90406046	     -6.02342112	     12.90394635	     56.92720294	     -3.03109925	     -8.58049860	      0.00000000	    -17.29496602	     -6.47314639	     -4.36161623	    117.81076132	     -2.75739263	     74.37395970	    115.22850642	     58.33208773	    121.09356889	     -4.57891567	     93.94080130	    114.26063524	     55.48035037
      3.23333330	    -27.98499898	     -0.55772738	      3.99586089	      0.38585504	      0.84045655	     -0.04897773	     62.48381943	      9.09652671	      3.21841031	     59.50827951	     25.01068657	    -35.00000000	      0.00000000	     73.77533540	     -6.33202156	     12.89118600	     53.69202185	     -2.50889106	     -6.60720303	      0.00000000	    -16.34605844	     -6.00108737	     -4.05438887	    115.08992588	     -2.70966977	     74.08236961	    115.00783909	     59.09424501	    118.58083972	     -4.73626820	     94.08683398	    114.40016371	     55.78754964
      3.25000000	    -27.66607626	     -0.82818202	      3.76686883	      0.39573327	      0.85049972	     -0.05308126	     60.14878401	      8.90427821	      2.98258853	     56.97759797	     23.86589091	    -35.00000000	      0.00000000	     70.75910147	     -6.71469218	     12.96589960	     50.41378587	     -2.28475799	     -5.21622557	      0.00000000	    -15.33176302	     -5.76614768	     -3.98312187	    112.36052184	     -1.93708139	     73.60302692	    115.19838584	     60.09701992	    115.87561662	     -4.85432743	     93.01873212	    115.43715847	     56.19177246
      3.26666670	    -27.38238124	     -1.18106600	      3.65972989	      0.40073083	      0.85806744	     -0.05558010	     58.11016861	      8.73112916	      2.71926023	     54.64411732	     23.05066131	    -35.00000000	      0.00000000	     68.24469948	     -7.04547273	     12.96186158	     47.13556300	     -2.61092092	     -4.59748067	      0.00000000	    -14.21170897	     -5.29016273	     -4.36283877	    109.73248512	     -0.90466270	     72.98746705	    114.86549940	     69.18556278	    113.34349240	     -5.76755997	     91.32071542	    116.77454182	     60.31863590
      3.28333330	    -27.08716880	     -1.34771494	      3.62611243	      0.40807813	      0.87264351	     -0.06038613	     55.97356528	      8.30860443	      2.39974594	     52.26038128	     21.69535007	    -35.00000000	      0.00000000	     65.59195301	     -7.07616293	     12.57834092	     43.83921947	     -3.34335974	     -4.61647544	      0.00000000	    -13.51505823	     -5.10143043	     -3.79402451	    107.38150091	     -1.12507221	     72.98094146	    115.82523986	     69.34390215	    110.61770908	     -5.31725389	     91.23376452	    118.50402910	     60.46675137
      3.30000000	    -26.65280093	     -1.45858284	      3.68861978	      0.41333944	      0.87677516	     -0.06214236	     53.99529218	      7.91944417	      2.07615684	     50.17926247	     20.98877931	    -35.00000000	      0.00000000	     63.24565133	     -7.12368513	     12.17211412	     41.11671390	     -3.97898869	     -5.50439971	      0.00000000	    -12.93505574	     -4.99551425	     -3.63307795	    105.49104725	     -0.58026299	     71.88348720	    116.02498814	     69.64445825	    107.90997805	     -5.34242710	     87.94487363	    119.55599044	     60.67409262
      3.31666670	    -26.56916421	     -1.64501184	      3.49965814	      0.41857626	      0.88101761	     -0.06517180	     52.55882241	      7.68672115	      1.61857597	     48.40988605	     20.16606195	    -35.00000000	      0.00000000	     61.65463034	     -7.32537851	     11.71073644	     39.15271702	     -4.06574157	     -5.85204503	      0.00000000	    -11.88368006	     -4.73360503	     -3.63604142	    103.87738929	      0.17180129	     70.93409593	    116.58602412	     70.13719040	    105.28059412	     -6.08721731	     83.80558534	    120.50363641	     61.00509224
      3.33333330	    -26.34829159	     -1.72666622	      3.08531200	      0.42790701	      0.89427536	     -0.06841145	     50.55009049	      7.54308186	      1.49670002	     45.99767439	     18.97985687	    -35.00000000	      0.00000000	     59.51507108	     -7.63225484	     11.06800189	     36.86273870	     -4.05612455	     -5.52391184	      0.00000000	    -10.81748502	     -4.61682193	     -3.55641721	    101.06610716	      0.92597852	     70.62997967	    117.58232602	     70.93191186	    101.31305081	     -6.87425741	     80.10186745	    122.16665684	     61.54018283
      3.35000000	    -26.15838629	     -1.89505678	      2.87357081	      0.43064326	      0.90256682	     -0.06995355	     48.80522266	      7.35807442	      1.17892830	     43.56397078	     17.84220238	    -35.00000000	      0.00000000	     57.95845468	     -7.96178805	     10.32933181	     35.01692360	     -4.30006250	     -5.00622317	      0.00000000	    -10.03848440	     -4.15599726	     -4.03362136	     98.99140284	      2.60067376	     70.48010535	    117.85298006	     78.83643684	     97.54101238	     -8.27422435	     76.31790381	    125.19446726	     68.27931827
      3.36666670	    -25.43126485	     -1.99578053	      2.45598429	      0.43639368	      0.91222029	     -0.07254173	     46.34794916	      7.22080075	      0.87029540	     40.67185349	     16.21868950	    -35.00000000	      0.00000000	     55.66037889	     -8.29309684	     10.12740861	     32.90850588	     -4.35438939	     -3.68879146	      0.00000000	     -9.75989262	     -4.18582441	     -3.68899500	     96.75419829	      2.92870410	     69.99605204	    118.80203465	     79.22897028	     93.91005966	     -8.09540020	     72.75617949	    124.62855737	     68.41615797
